<svg width="240" height="300" viewBox="0 0 240 300" fill="none" xmlns="http://www.w3.org/2000/svg">
<path fill-rule="evenodd" clip-rule="evenodd" d="M232.769 264.831C217.267 285.241 172.313 300 119.273 300C53.4005 300 0 277.235 0 249.153C0 221.07 53.4005 198.305 119.273 198.305C180.097 198.305 230.287 217.714 237.624 242.797H174.049C167.429 231.831 144.08 223.729 116.292 223.729C83.3552 223.729 56.6549 235.111 56.6549 249.153C56.6549 263.194 83.3552 274.576 116.292 274.576C135.353 274.576 152.325 270.764 163.242 264.831H232.769Z" fill="#4FC08D"/>
<path fill-rule="evenodd" clip-rule="evenodd" d="M232.769 264.831C217.267 285.241 172.313 300 119.273 300C53.4005 300 0 277.235 0 249.153C0 221.07 53.4005 198.305 119.273 198.305C180.097 198.305 230.287 217.714 237.624 242.797H202.447C195.405 225.936 160.846 213.136 119.273 213.136C72.6132 213.136 34.7879 229.261 34.7879 249.152C34.7879 269.044 72.6132 285.169 119.273 285.169C152.751 285.169 181.682 276.868 195.356 264.831H232.769Z" fill="#223E36"/>
<path d="M212.745 111.015L121.189 159.955V191.004L212.745 142.065V111.015ZM204.633 51.2561L121.189 95.8585V126.908L229.547 68.9888H204.633V51.2561ZM121.768 0L2.95569 63.0929L2.37622 190.212L120.609 254.237L239.421 191.145L240 64.0284L121.768 0ZM122.588 30.1411L211.789 78.4477L211.352 174.357L121.711 221.956L32.5087 173.652L32.9456 77.7437L122.588 30.1411Z" fill="#409EFF"/>
</svg>
